<?xml version="1.0" standalone="no"?>
<!DOCTYPE svg PUBLIC "-//W3C//DTD SVG 20010904//EN"
 "http://www.w3.org/TR/2001/REC-SVG-20010904/DTD/svg10.dtd">
<svg version="1.0" xmlns="http://www.w3.org/2000/svg"
 width="499.000000pt" height="499.000000pt" viewBox="0 0 499.000000 499.000000"
 preserveAspectRatio="xMidYMid meet">
<metadata>
Created by potrace 1.14, written by Peter Selinger 2001-2017
</metadata>
<g transform="translate(0.000000,499.000000) scale(0.100000,-0.100000)"
fill="#000000" stroke="none">
<path d="M1405 4960 c6 -10 4 -12 -8 -7 -10 3 -17 3 -17 -2 0 -4 43 -8 95 -8
52 0 92 3 90 8 -3 4 -37 8 -75 8 -39 0 -75 3 -82 7 -7 5 -8 3 -3 -6z"/>
<path d="M4645 4031 c-38 -15 -72 -28 -75 -28 -3 -1 -18 -7 -35 -13 -45 -16
-60 -21 -65 -22 -3 -1 -68 -24 -145 -51 -77 -27 -144 -50 -150 -51 -5 -2 -18
-6 -27 -9 -10 -4 -26 -10 -35 -14 -10 -3 -24 -8 -30 -10 -7 -1 -19 -5 -25 -6
-7 -2 -24 -8 -38 -14 -14 -5 -77 -27 -140 -48 -63 -20 -124 -41 -135 -47 -12
-5 -27 -10 -35 -12 -30 -6 -75 -19 -85 -25 -5 -3 -14 -6 -20 -8 -5 -1 -37 -11
-70 -23 -33 -12 -67 -23 -75 -25 -8 -2 -28 -9 -45 -16 -16 -7 -32 -13 -35 -14
-20 -5 -122 -41 -150 -53 -19 -9 -37 -16 -40 -17 -14 -3 -86 -28 -95 -34 -5
-3 -12 -6 -15 -6 -7 0 -68 -24 -116 -46 -23 -10 -54 -21 -68 -25 -14 -3 -26
-9 -26 -13 0 -4 -6 -8 -14 -8 -8 0 -31 -7 -52 -17 -22 -10 -52 -24 -69 -31
-16 -7 -104 -49 -195 -94 -229 -111 -378 -212 -475 -322 -65 -72 -92 -184 -58
-236 8 -13 11 -23 7 -23 -5 0 -3 -4 4 -9 7 -4 14 -14 16 -22 1 -8 8 -24 14
-36 7 -13 10 -23 6 -23 -3 0 -2 -6 4 -12 5 -7 21 -40 35 -73 38 -91 96 -216
114 -250 10 -16 17 -32 17 -35 -1 -5 18 -49 67 -157 15 -35 34 -63 41 -64 124
-8 134 -4 113 45 -14 31 -26 64 -30 79 -2 4 -3 8 -5 10 -1 1 -3 9 -5 17 -2 8
-9 33 -15 55 -6 22 -13 58 -15 80 -10 77 -16 109 -20 113 -2 2 0 14 4 26 5 11
5 30 1 41 -4 11 -3 26 2 33 6 6 8 12 6 12 -20 0 39 167 69 198 7 7 13 17 13
21 0 5 27 35 60 69 59 59 145 120 305 217 44 27 83 54 87 59 4 6 8 7 8 3 0 -5
12 0 28 10 56 38 328 164 336 155 3 -3 6 0 6 6 0 7 7 12 15 12 8 0 23 4 33 10
9 5 35 16 57 26 56 23 73 30 129 53 27 12 55 21 62 21 8 0 14 4 14 10 0 5 3 9
8 8 6 -2 144 48 197 72 56 26 175 67 175 62 0 -4 4 -2 8 3 4 6 30 18 57 29 28
10 73 27 100 38 28 11 60 22 73 25 12 3 22 9 22 12 0 4 6 8 13 8 17 1 41 7 47
13 5 5 68 30 85 33 6 2 15 5 20 8 6 4 22 9 36 12 14 4 41 13 60 21 19 8 38 14
43 14 5 0 13 7 18 16 5 9 13 14 17 12 4 -3 14 10 21 29 8 19 17 35 21 35 4 0
9 8 12 18 6 16 28 56 94 167 36 62 29 64 -72 26z"/>
<path d="M1240 3159 c-19 -5 -43 -11 -53 -14 -9 -2 -22 -7 -27 -10 -5 -3 -20
-8 -32 -11 -28 -6 -39 -9 -58 -17 -20 -7 -222 -69 -235 -71 -5 -1 -20 -7 -32
-14 -12 -7 -26 -11 -30 -11 -4 1 -15 -1 -23 -4 -8 -4 -94 -32 -190 -63 -96
-31 -182 -58 -190 -61 -8 -3 -19 -7 -25 -9 -65 -16 -37 -20 141 -20 194 0 386
-9 435 -20 13 -3 38 -7 54 -10 17 -3 55 -10 85 -16 30 -7 57 -12 60 -13 3 0
11 -4 18 -8 6 -5 12 -6 12 -3 0 7 141 -43 158 -56 6 -6 12 -7 12 -2 0 5 5 1
11 -8 5 -10 17 -18 24 -18 8 0 15 -5 15 -12 0 -6 3 -9 6 -5 3 3 31 -19 61 -49
30 -30 59 -54 64 -54 5 0 9 -3 9 -8 0 -4 10 -18 23 -32 12 -14 38 -45 57 -70
19 -25 40 -50 46 -57 6 -6 17 -25 24 -42 7 -17 16 -31 21 -31 5 0 9 -6 9 -14
0 -8 3 -16 8 -18 8 -3 92 -179 96 -200 1 -7 4 -17 8 -23 3 -5 9 -24 12 -41 13
-57 24 -61 203 -59 89 0 165 4 169 8 7 6 -11 77 -25 102 -3 6 -6 12 -7 15 0 3
-6 19 -13 35 -12 30 -18 45 -41 100 -8 17 -12 36 -11 43 1 6 -3 12 -9 12 -5 0
-10 4 -10 9 0 5 -5 22 -12 38 -6 15 -12 31 -12 35 -1 3 -4 10 -8 14 -5 4 -8
16 -8 26 0 10 -5 18 -11 18 -5 0 -8 4 -4 9 3 5 1 12 -5 16 -6 4 -8 10 -5 15 3
4 -2 13 -10 20 -8 7 -15 23 -15 35 0 12 -7 28 -15 35 -8 6 -13 15 -12 18 3 10
-85 186 -95 190 -4 2 -6 8 -2 13 3 5 0 9 -7 9 -7 0 -9 3 -6 6 4 4 -3 15 -14
25 -11 9 -19 21 -18 24 4 15 -77 105 -126 140 -16 11 -34 26 -41 33 -7 6 -17
12 -23 12 -6 0 -11 4 -11 8 0 16 -207 100 -232 94 -5 -1 -8 2 -8 6 0 4 -15 9
-32 10 -18 1 -40 4 -48 6 -8 2 -31 0 -50 -5z"/>
<path d="M1188 1844 c-42 -6 -81 -15 -87 -19 -6 -3 -20 -8 -32 -10 -31 -6 -79
-29 -79 -37 0 -5 -3 -7 -7 -6 -32 9 -168 -114 -232 -209 -23 -35 -38 -63 -34
-63 4 0 3 -4 -2 -8 -13 -9 -64 -117 -55 -117 1 0 -4 -13 -10 -30 -28 -74 -31
-193 -6 -257 47 -118 156 -170 340 -163 56 2 112 6 126 8 14 2 30 5 36 5 11 2
39 51 36 65 -1 4 2 7 6 7 4 0 8 10 9 22 1 11 8 25 15 29 7 5 10 9 6 9 -4 0 1
16 12 35 19 34 15 42 -15 35 -5 -1 -21 -4 -35 -5 -14 -2 -25 -4 -25 -5 0 -4
-44 -11 -95 -14 -110 -6 -182 52 -189 150 -5 87 59 230 133 296 47 42 60 53
66 54 3 0 23 9 45 20 39 18 128 22 249 12 l39 -3 16 60 c9 33 18 63 19 68 9
30 8 42 -4 54 -6 7 -20 12 -30 12 -21 0 -100 9 -124 14 -8 2 -50 -2 -92 -9z"/>
<path d="M3569 1856 c-2 -2 -36 -6 -75 -9 -39 -4 -84 -11 -100 -18 -81 -33
-103 -44 -150 -75 -45 -29 -93 -76 -147 -146 -22 -28 -87 -161 -92 -190 -3
-11 -8 -35 -13 -52 -12 -40 -15 -75 -15 -156 0 -116 57 -202 168 -255 56 -27
68 -29 185 -29 142 0 188 4 200 19 4 5 13 30 20 55 7 25 17 51 22 58 6 6 8 12
4 12 -4 0 0 13 8 28 23 45 9 54 -59 35 -76 -20 -182 -20 -221 0 -50 26 -92 89
-95 144 -7 118 60 249 174 340 35 28 129 46 201 38 141 -15 130 -19 141 60 2
17 6 44 9 61 9 46 -10 62 -83 68 -35 4 -67 8 -71 11 -4 2 -9 3 -11 1z"/>
<path d="M1774 1725 c-41 -60 -90 -130 -109 -155 -18 -25 -34 -48 -34 -52 -1
-5 -9 -17 -18 -27 -27 -29 -36 -42 -77 -101 -21 -30 -43 -58 -49 -62 -7 -4 -8
-8 -4 -8 5 0 -3 -15 -17 -32 -37 -46 -34 -42 -115 -158 -41 -58 -78 -106 -82
-108 -5 -2 -9 -8 -9 -13 0 -6 -9 -19 -20 -31 -23 -25 -25 -38 -7 -39 22 -1
182 -1 203 0 14 1 35 21 62 64 23 34 45 67 50 72 4 6 11 17 14 25 3 8 20 34
37 57 l30 42 116 3 c63 2 115 -1 115 -5 0 -4 8 -3 18 2 17 9 45 1 43 -13 -1
-3 0 -8 0 -11 5 -19 4 -33 -3 -52 -4 -13 -4 -23 0 -23 10 0 8 -42 -2 -58 -4
-7 -3 -12 1 -12 10 0 10 -41 0 -56 -3 -5 -2 -16 3 -24 6 -10 35 -14 112 -15
57 -1 110 2 119 6 12 6 15 19 12 51 -1 24 -5 84 -7 133 -3 50 -8 140 -11 200
-3 61 -8 193 -11 295 -2 102 -7 192 -9 200 -4 13 -27 16 -141 15 l-135 0 -75
-110z m155 -210 c0 -71 -4 -117 -11 -121 -16 -10 -51 -11 -70 -2 -10 5 -18 5
-18 0 0 -5 -10 -8 -22 -6 -13 1 -28 3 -34 3 -13 1 -15 31 -2 31 5 0 7 4 4 9
-4 5 -3 11 1 13 5 1 22 23 38 48 17 25 36 51 43 58 6 7 12 20 12 28 0 8 5 14
12 14 6 0 8 3 5 7 -7 6 21 32 35 33 4 0 7 -52 7 -115z"/>
<path d="M2494 1820 c-9 -19 -12 -29 -19 -64 -3 -16 -8 -33 -10 -36 -2 -4 -7
-20 -9 -36 -3 -16 -15 -60 -26 -99 -12 -38 -23 -77 -25 -85 -2 -8 -15 -53 -30
-100 -14 -47 -28 -94 -30 -105 -3 -11 -9 -31 -14 -45 -12 -32 -53 -174 -52
-178 1 -1 -6 -16 -14 -32 -9 -17 -13 -30 -9 -30 4 0 1 -7 -6 -15 -7 -8 -9 -15
-4 -15 5 0 4 -4 -3 -8 -7 -5 -9 -13 -3 -22 7 -11 59 -14 287 -15 184 0 282 3
289 10 6 6 13 22 17 35 3 14 13 52 22 84 10 37 13 61 7 65 -6 3 -79 6 -164 5
-87 0 -156 3 -159 9 -4 5 0 35 8 66 9 31 16 61 17 66 1 6 5 16 9 23 5 6 6 16
2 21 -3 5 -1 12 4 15 4 3 12 20 16 38 4 18 9 38 11 43 5 17 84 289 89 305 2 8
10 33 18 55 11 30 11 43 3 50 -6 6 -57 10 -113 10 -82 0 -104 -3 -109 -15z"/>
<path d="M3883 1825 c0 -5 -10 -55 -22 -110 -28 -125 -28 -125 -35 -170 -4
-20 -8 -40 -11 -44 -4 -8 -15 -55 -19 -86 -3 -22 -24 -101 -33 -125 -5 -13
-11 -49 -15 -87 -1 -7 -5 -13 -10 -13 -5 0 -7 -4 -4 -9 4 -5 2 -20 -3 -34 -5
-13 -11 -37 -14 -53 -3 -16 -10 -49 -17 -74 -25 -91 -28 -87 90 -84 41 1 87 3
102 3 29 1 34 11 42 76 2 17 6 37 10 45 3 8 8 33 10 55 3 22 5 40 7 40 1 0 3
9 5 20 2 11 10 52 19 90 9 39 18 81 20 95 2 14 4 25 5 25 1 0 3 7 5 15 2 8 7
26 10 40 3 14 8 35 11 48 2 12 6 32 8 45 3 12 7 31 10 42 19 73 24 100 20 107
-3 4 0 8 7 8 7 0 10 2 7 5 -3 3 3 35 12 70 12 45 14 65 6 66 -55 7 -223 2
-223 -6z"/>
</g>
</svg>
