<svg width="61" height="61" viewBox="0 0 61 61" fill="none" xmlns="http://www.w3.org/2000/svg">
<path d="M55.9166 30.4999C55.9166 25.473 54.4259 20.5589 51.6331 16.3792C48.8403 12.1994 44.8708 8.94172 40.2265 7.01799C35.5822 5.09426 30.4717 4.59093 25.5414 5.57164C20.611 6.55235 16.0822 8.97305 12.5276 12.5276C8.97305 16.0822 6.55235 20.611 5.57164 25.5414C4.59093 30.4717 5.09426 35.5822 7.01799 40.2265C8.94172 44.8708 12.1994 48.8403 16.3792 51.6331C20.5589 54.4259 25.473 55.9166 30.4999 55.9166C37.2409 55.9166 43.7057 53.2388 48.4722 48.4722C53.2388 43.7057 55.9166 37.2409 55.9166 30.4999ZM25.7724 39.8787L18.5033 32.2537C18.3957 32.1434 18.3095 32.0141 18.2491 31.8724C18.1412 31.7528 18.0551 31.6152 17.9949 31.4658C17.8605 31.1615 17.791 30.8326 17.791 30.4999C17.791 30.1673 17.8605 29.8383 17.9949 29.5341C18.1159 29.2221 18.2973 28.9371 18.5287 28.6953L26.1537 21.0703C26.6323 20.5917 27.2814 20.3229 27.9583 20.3229C28.6351 20.3229 29.2842 20.5917 29.7628 21.0703C30.2415 21.549 30.5103 22.1981 30.5103 22.8749C30.5103 23.5518 30.2415 24.2009 29.7628 24.6795L26.4587 27.9583H40.6666C41.3407 27.9583 41.9872 28.226 42.4638 28.7027C42.9405 29.1794 43.2083 29.8258 43.2083 30.4999C43.2083 31.174 42.9405 31.8205 42.4638 32.2972C41.9872 32.7738 41.3407 33.0416 40.6666 33.0416H26.2808L29.4578 36.3712C29.923 36.8599 30.1749 37.5134 30.1582 38.1878C30.1415 38.8623 29.8576 39.5025 29.3689 39.9676C28.8802 40.4328 28.2267 40.6847 27.5522 40.668C26.8778 40.6513 26.2376 40.3674 25.7724 39.8787Z" fill="#EA5455"/>
</svg>
