<svg width="61" height="61" viewBox="0 0 61 61" fill="none" xmlns="http://www.w3.org/2000/svg">
<path d="M5.0835 30.4999C5.0835 35.5269 6.57416 40.4409 9.36698 44.6207C12.1598 48.8004 16.1293 52.0581 20.7736 53.9819C25.4179 55.9056 30.5284 56.4089 35.4587 55.4282C40.3891 54.4475 44.9179 52.0268 48.4725 48.4722C52.027 44.9176 54.4477 40.3888 55.4285 35.4585C56.4092 30.5281 55.9058 25.4177 53.9821 20.7734C52.0584 16.1291 48.8007 12.1596 44.6209 9.36673C40.4412 6.57391 35.5271 5.08325 30.5002 5.08325C27.1624 5.08325 23.8573 5.74067 20.7736 7.01798C17.6899 8.29529 14.888 10.1675 12.5279 12.5276C7.76132 17.2942 5.0835 23.759 5.0835 30.4999ZM35.2277 21.1212L42.4968 28.7462C42.6044 28.8564 42.6906 28.9857 42.751 29.1274C42.8589 29.247 42.945 29.3847 43.0052 29.5341C43.1396 29.8383 43.2091 30.1673 43.2091 30.4999C43.2091 30.8325 43.1396 31.1615 43.0052 31.4657C42.8842 31.7777 42.7028 32.0628 42.4714 32.3045L34.8464 39.9295C34.3678 40.4081 33.7187 40.677 33.0418 40.677C32.365 40.677 31.7158 40.4081 31.2372 39.9295C30.7586 39.4509 30.4898 38.8018 30.4898 38.1249C30.4898 37.4481 30.7586 36.7989 31.2372 36.3203L34.5414 33.0416H20.3335C19.6594 33.0416 19.0129 32.7738 18.5363 32.2971C18.0596 31.8205 17.7918 31.174 17.7918 30.4999C17.7918 29.8258 18.0596 29.1793 18.5363 28.7027C19.0129 28.226 19.6594 27.9583 20.3335 27.9583H34.7193L31.5422 24.6287C31.0771 24.1399 30.8252 23.4865 30.8419 22.812C30.8586 22.1375 31.1425 21.4973 31.6312 21.0322C32.1199 20.5671 32.7734 20.3152 33.4479 20.3318C34.1223 20.3485 34.7625 20.6325 35.2277 21.1212Z" fill="#EA5455"/>
</svg>
