<svg width="32" height="35" viewBox="0 0 32 35" fill="none" xmlns="http://www.w3.org/2000/svg">
<path d="M30.2237 23.2525L27.1169 20.1285V12.4305C27.1582 9.57193 26.1639 6.79493 24.3175 4.61227C22.4712 2.42961 19.8974 0.988694 17.0716 0.555579C15.4315 0.339599 13.7643 0.475863 12.1811 0.955279C10.5979 1.4347 9.13517 2.24624 7.89047 3.33576C6.64577 4.42528 5.64773 5.76773 4.96296 7.27353C4.27819 8.77932 3.92242 10.4138 3.9194 12.068V20.1285L0.812596 23.2525C0.422356 23.6493 0.157721 24.1523 0.0517732 24.6986C-0.0541746 25.2449 0.00326563 25.8104 0.216913 26.3242C0.43056 26.8381 0.790935 27.2776 1.25299 27.5877C1.71504 27.8979 2.25827 28.065 2.81476 28.0681H8.61414V28.6549C8.69476 30.4072 9.4667 32.056 10.7608 33.2401C12.0549 34.4242 13.7657 35.0471 15.5182 34.9721C17.2707 35.0471 18.9814 34.4242 20.2755 33.2401C21.5696 32.056 22.3416 30.4072 22.4222 28.6549V28.0681H28.2216C28.778 28.065 29.3213 27.8979 29.7833 27.5877C30.2454 27.2776 30.6058 26.8381 30.8194 26.3242C31.033 25.8104 31.0905 25.2449 30.9845 24.6986C30.8786 24.1523 30.614 23.6493 30.2237 23.2525ZM18.9702 28.6549C18.8744 29.4851 18.4621 30.2464 17.819 30.7802C17.176 31.3139 16.3518 31.579 15.5182 31.5201C14.6845 31.579 13.8603 31.3139 13.2173 30.7802C12.5742 30.2464 12.1619 29.4851 12.0661 28.6549V28.0681H18.9702V28.6549Z" fill="#EA5455"/>
</svg>
