<svg width="166" height="165" viewBox="0 0 166 165" fill="none" xmlns="http://www.w3.org/2000/svg">
<ellipse cx="83" cy="82.8328" rx="83" ry="81.8814" fill="#D9D9D9"/>
<path d="M63.6457 75.6408C63.4453 75.6408 63.2437 75.5952 63.0536 75.4977C61.1131 74.4981 59.2266 74.4981 57.286 75.4977C56.6568 75.8208 55.8811 75.58 55.5536 74.9605C55.2261 74.3397 55.4701 73.5745 56.0981 73.2514C58.8002 71.8615 61.5395 71.8628 64.2403 73.2514C64.8696 73.5745 65.1136 74.3397 64.7848 74.9605C64.5562 75.3925 64.108 75.6408 63.6457 75.6408Z" fill="black"/>
<path d="M76.8659 75.6408C76.6656 75.6408 76.4639 75.5952 76.2739 75.4977C74.3333 74.4981 72.4468 74.4981 70.5063 75.4977C69.8783 75.8208 69.1013 75.58 68.7738 74.9605C68.4463 74.3397 68.6903 73.5745 69.3183 73.2514C72.0204 71.8615 74.7597 71.8628 77.4605 73.2514C78.0898 73.5745 78.3338 74.3397 78.005 74.9605C77.7764 75.3925 77.3282 75.6408 76.8659 75.6408Z" fill="black"/>
<path d="M66.7704 91.1749C64.7952 91.1749 62.8251 90.2551 60.9103 88.4155C60.4017 87.9277 60.3915 87.1244 60.8859 86.624C61.3803 86.1223 62.1945 86.1134 62.7018 86.6012C65.5118 89.2998 68.0264 89.3011 70.8582 86.5974C71.3667 86.1121 72.1797 86.1235 72.6741 86.6265C73.1672 87.1282 73.1544 87.9315 72.6446 88.418C70.7194 90.2563 68.743 91.1749 66.7704 91.1749Z" fill="black"/>
<path d="M93.515 105.35L84.0243 103.772C80.9704 103.265 78.7537 100.884 78.7537 98.0799L78.7101 96.1972C78.8539 96.0641 79.0093 95.9489 79.1506 95.8108C79.523 95.4459 79.8697 95.0557 80.2178 94.668C84.2992 93.9331 87.4867 90.6619 88.0415 86.5734H89.946C91.9212 86.5734 93.5278 84.9885 93.5278 83.0399V73.4846C93.5278 71.536 91.9212 69.951 89.946 69.951H86.9537L86.9589 69.8725C87.3351 69.6875 87.6048 69.3366 87.6626 68.921C88.9495 59.8623 87.5971 52.9967 83.6468 48.5155C80.0842 44.474 74.4951 42.4253 67.0323 42.4253C59.5605 42.4253 53.1187 44.9909 49.3609 49.4657C45.6083 53.933 44.4435 60.0511 45.8998 67.649C45.9641 67.9822 46.167 68.2546 46.4341 68.4396L46.5484 69.9523H43.6126C41.6374 69.9523 40.0308 71.5373 40.0308 73.4858V83.0412C40.0308 84.9897 41.6374 86.5747 43.6126 86.5747H48.5775C49.8451 90.2539 52.0078 93.5569 54.8498 96.2022L54.8036 98.109C54.8036 100.884 52.587 103.265 49.533 103.774L40.0436 105.351C34.4224 106.285 30.3411 110.767 30.3411 116.01V136.137C30.3423 138.417 32.3355 140.274 34.7859 140.274H98.7702C101.221 140.274 103.215 138.417 103.215 136.134V116.008C103.216 110.766 99.1362 106.283 93.515 105.35ZM83.2396 90.4731C83.5504 89.9207 83.8497 89.3595 84.1142 88.7855C84.4481 88.0621 84.7307 87.3222 84.9875 86.5734H85.446C85.1596 88.1077 84.3647 89.4646 83.2396 90.4731ZM89.946 72.4862C90.506 72.4862 90.9593 72.9347 90.9593 73.4858V83.0412C90.9593 83.5923 90.5047 84.0408 89.946 84.0408H85.69C85.9135 83.0272 86.092 82.0023 86.1806 80.9558L86.7752 72.4875H89.946V72.4862ZM82.505 52.31C82.6193 52.0997 82.7324 51.8881 82.8428 51.674C85.1275 55.1847 85.9803 60.1068 85.3831 66.3567C81.651 63.3426 79.0902 60.0258 82.505 52.31ZM51.34 51.0836C54.6084 47.1928 60.3285 44.9605 67.0336 44.9605C73.2417 44.9605 77.9434 46.4745 81.0269 49.4657C80.7405 50.0257 80.4811 50.5705 80.246 51.0988C74.3243 61.9452 63.0935 67.2879 48.2552 66.2313C47.2136 59.8547 48.2488 54.7616 51.34 51.0836ZM43.6126 84.0395C43.0539 84.0395 42.5993 83.591 42.5993 83.0399V73.4846C42.5993 72.9334 43.0539 72.4849 43.6126 72.4849H46.7397L47.3793 80.971C47.4679 82.0124 47.6349 83.0336 47.8571 84.0383H43.6126V84.0395ZM49.9401 80.7733L49.0386 68.8108C61.5794 69.4861 71.6736 65.798 78.389 58.2102C78.2053 63.463 81.3492 66.4454 84.4546 68.8665L83.6198 80.7619C83.4143 83.1831 82.794 85.5295 81.7769 87.7378C81.2401 88.9033 80.5902 90.0271 79.8479 91.0774C79.5564 91.4892 79.2366 91.8845 78.9143 92.2772C78.7717 92.2861 78.6292 92.2988 78.484 92.2988H71.427C70.7181 92.2988 70.1428 92.8651 70.1428 93.5657C70.1428 94.2663 70.7181 94.8327 71.427 94.8327H76.4061C74.395 96.5811 72.1115 97.9481 69.5661 98.8565C67.7695 99.4976 65.7891 99.4976 63.9912 98.8565C56.1508 96.0603 50.6349 88.9578 49.9401 80.7733ZM57.3657 98.2458C59.1149 99.4786 61.04 100.497 63.1179 101.237C64.2981 101.658 65.5387 101.869 66.7793 101.869C68.0199 101.869 69.2605 101.658 70.4407 101.237C72.5148 100.497 74.4271 99.471 76.1929 98.2268C76.2353 100.939 77.6942 103.376 79.9776 104.869C71.1278 112.742 62.4655 112.744 53.5874 104.868C55.8695 103.376 57.3285 100.942 57.3657 98.2458ZM40.47 107.848L49.9594 106.271C50.337 106.207 50.703 106.117 51.0613 106.014C56.2869 110.906 61.5408 113.377 66.7922 113.377C72.0435 113.377 77.2897 110.906 82.4986 106.015C82.8569 106.117 83.2217 106.209 83.5979 106.272L93.0886 107.849C97.4679 108.577 100.648 112.007 100.648 116.008V124.031H93.2158C91.2727 124.031 89.3989 124.782 88.0736 126.091C86.8523 127.298 86.1806 128.874 86.1832 130.529C86.1883 134.487 86.187 136.612 86.1832 137.74H47.301C47.2971 136.61 47.2971 134.486 47.3023 130.53C47.3048 128.874 46.6332 127.298 45.4105 126.091C44.0852 124.782 42.2115 124.031 40.2697 124.031H32.9109V116.008C32.9109 112.006 36.0894 108.575 40.47 107.848ZM32.9109 136.134V126.563H40.2697C41.5347 126.563 42.7457 127.044 43.5933 127.88C44.3305 128.607 44.735 129.546 44.7337 130.525C44.7286 134.481 44.7299 136.596 44.7325 137.739H34.7859C33.7521 137.74 32.9109 137.021 32.9109 136.134ZM98.7715 137.74H88.753C88.7568 136.596 88.7568 134.481 88.7517 130.525C88.7504 129.548 89.1536 128.608 89.8921 127.881C90.7384 127.045 91.9508 126.565 93.2158 126.565H100.648V136.135C100.648 137.021 99.8053 137.74 98.7715 137.74Z" fill="black"/>
<path d="M99.9542 67.6438C99.7667 67.6438 99.5805 67.6033 99.4045 67.5222C98.9551 67.3119 98.6699 66.8659 98.6699 66.3769V57.9529C95.2885 57.3537 92.7148 54.4295 92.7148 50.9252V33.3893C92.7148 29.4516 95.9614 26.2488 99.9542 26.2488H127.288C131.28 26.2488 134.528 29.4516 134.528 33.3893V50.9239C134.528 54.8616 131.281 58.0644 127.288 58.0644H112.237L100.768 67.355C100.535 67.545 100.246 67.6438 99.9542 67.6438ZM99.9542 28.7827C97.3793 28.7827 95.2834 30.8491 95.2834 33.3893V50.9239C95.2834 53.4641 97.3793 55.5305 99.9542 55.5305C100.664 55.5305 101.238 56.0981 101.238 56.7975V63.696L110.962 55.8181C111.191 55.6319 111.479 55.5305 111.777 55.5305H127.288C129.863 55.5305 131.959 53.4641 131.959 50.9239V33.3893C131.959 30.8491 129.863 28.7827 127.288 28.7827H99.9542Z" fill="black"/>
<path d="M125.962 39.9358H101.274C100.564 39.9358 99.9902 39.3682 99.9902 38.6688C99.9902 37.9694 100.564 37.4019 101.274 37.4019H125.962C126.672 37.4019 127.246 37.9694 127.246 38.6688C127.246 39.3682 126.671 39.9358 125.962 39.9358Z" fill="black"/>
<path d="M113.617 48.2126H101.274C100.564 48.2126 99.9902 47.645 99.9902 46.9457C99.9902 46.2463 100.564 45.6787 101.274 45.6787H113.617C114.328 45.6787 114.902 46.2463 114.902 46.9457C114.902 47.645 114.328 48.2126 113.617 48.2126Z" fill="black"/>
</svg>
