<svg width="19" height="17" viewBox="0 0 19 17" fill="none" xmlns="http://www.w3.org/2000/svg">
<path d="M0.960975 3.58393H17.9229C18.2832 3.58393 18.5753 3.29186 18.5753 2.93155V1.30059C18.5753 0.940275 18.2832 0.648212 17.9229 0.648212H0.960975C0.600656 0.648212 0.308594 0.940275 0.308594 1.30059V2.93155C0.308594 3.29186 0.600656 3.58393 0.960975 3.58393ZM0.960975 10.1077H17.9229C18.2832 10.1077 18.5753 9.81567 18.5753 9.45535V7.8244C18.5753 7.46408 18.2832 7.17202 17.9229 7.17202H0.960975C0.600656 7.17202 0.308594 7.46408 0.308594 7.8244V9.45535C0.308594 9.81567 0.600656 10.1077 0.960975 10.1077ZM0.960975 16.6315H17.9229C18.2832 16.6315 18.5753 16.3395 18.5753 15.9792V14.3482C18.5753 13.9879 18.2832 13.6958 17.9229 13.6958H0.960975C0.600656 13.6958 0.308594 13.9879 0.308594 14.3482V15.9792C0.308594 16.3395 0.600656 16.6315 0.960975 16.6315Z" fill="white"/>
</svg>
