<svg width="166" height="165" viewBox="0 0 166 165" fill="none" xmlns="http://www.w3.org/2000/svg">
<ellipse cx="83" cy="82.8328" rx="83" ry="81.8814" fill="#D9D9D9"/>
<path d="M126.699 65.8844L111.097 79.8764C110.747 80.1902 110.175 80.1936 109.821 79.8832C109.466 79.5728 109.463 79.0668 109.813 78.753L124.781 65.3295L101.058 44.5985L80.4588 63.0726C80.1082 63.3864 79.5367 63.3898 79.1823 63.0794C78.8278 62.769 78.824 62.263 79.1746 61.9492L100.407 42.9055C100.758 42.5917 101.329 42.5883 101.684 42.8987L126.69 64.7542C127.045 65.0646 127.049 65.5706 126.699 65.8844Z" fill="black"/>
<path d="M110.061 58.6656L106.75 61.6343C106.4 61.9481 105.828 61.9515 105.474 61.6411C105.119 61.3307 105.115 60.8247 105.466 60.5109L108.777 57.5422C109.127 57.2284 109.699 57.225 110.053 57.5354C110.406 57.8446 110.41 58.3517 110.061 58.6656Z" fill="black"/>
<path d="M102.705 68.9713C101.215 70.3073 98.7749 70.3221 97.2659 69.002C95.7569 67.6831 95.7402 65.5228 97.2312 64.1868C98.721 62.8508 101.161 62.8372 102.67 64.1561C104.179 65.475 104.194 67.6342 102.705 68.9713ZM98.5155 65.3102C97.7244 66.0196 97.7334 67.1646 98.5335 67.8639C99.3336 68.5631 100.628 68.5563 101.418 67.848C102.208 67.1396 102.2 65.9935 101.4 65.2942C100.6 64.595 99.3066 64.6007 98.5155 65.3102Z" fill="black"/>
<path d="M67.0704 126.096L61.7215 130.893L56.2339 126.096H53.6628L61.0961 132.593C61.4505 132.903 62.0233 132.9 62.3726 132.586L69.6081 126.097H67.0704V126.096Z" fill="black"/>
<path d="M33.5629 106.281L27.8235 101.265L33.5629 96.1164V93.8401L25.9036 100.71C25.553 101.024 25.5568 101.531 25.9113 101.84L33.5629 108.528V106.281Z" fill="black"/>
<path d="M64.9553 80.7247C65.5165 77.864 67.0242 75.1204 69.4977 72.9021C75.9537 67.1114 86.527 67.0511 93.0664 72.768C95.6272 75.0056 97.1799 77.8038 97.754 80.7259H99.5776C98.9881 77.3876 97.2531 74.1813 94.3353 71.631C87.0869 65.2956 75.3681 65.3627 68.2122 71.7799C65.3919 74.3098 63.7121 77.4559 63.1355 80.7259H64.9553V80.7247Z" fill="black"/>
<path d="M73.7846 77.9809C73.1116 78.828 72.7058 79.774 72.5799 80.7257H74.401C74.5654 79.8502 75.0624 78.9667 75.8574 78.2538C77.2097 77.0418 79.1258 76.562 80.6271 77.0588C81.0946 77.2135 81.6147 77.0031 81.7894 76.5904C81.964 76.1765 81.7264 75.716 81.2602 75.5614C79.2273 74.8883 76.8296 75.3817 74.9982 76.7962L73.8321 75.7774C73.4776 75.467 72.9049 75.4704 72.5555 75.7842C72.2049 76.0981 72.2088 76.6052 72.5633 76.9144L73.7846 77.9809Z" fill="black"/>
<path d="M136.803 64.6951L101.62 33.9448C101.265 33.6344 100.692 33.6378 100.343 33.9516L48.188 80.7246H50.7257L100.994 35.6446L134.892 65.2727L117.661 80.7246H120.199L136.812 65.8265C137.161 65.5126 137.159 65.0055 136.803 64.6951Z" fill="black"/>
<path d="M140.323 126.095H34.3655C33.8672 126.095 33.4627 125.736 33.4627 125.295V81.5239C33.4627 81.0828 33.8672 80.7246 34.3655 80.7246H140.323C140.822 80.7246 141.226 81.0828 141.226 81.5239V125.295C141.226 125.736 140.822 126.095 140.323 126.095ZM35.2684 124.496H139.42V82.3232H35.2684V124.496Z" fill="black"/>
<path d="M87.3437 119.765C77.1583 119.765 68.8723 112.429 68.8723 103.41C68.8723 94.3926 77.1583 87.0566 87.3437 87.0566C97.5305 87.0566 105.817 94.3926 105.817 103.41C105.817 112.429 97.5305 119.765 87.3437 119.765ZM87.3437 88.6553C78.1536 88.6553 70.6779 95.2738 70.6779 103.41C70.6779 111.547 78.1536 118.165 87.3437 118.165C96.5339 118.165 104.01 111.547 104.01 103.41C104.011 95.2738 96.5352 88.6553 87.3437 88.6553Z" fill="black"/>
<path d="M87.1768 111.997C84.512 111.997 82.172 110.776 81.2166 108.886C81.0124 108.483 81.2166 108.01 81.6712 107.83C82.1245 107.648 82.6601 107.83 82.8643 108.232C83.5192 109.527 85.253 110.397 87.1755 110.397C89.0993 110.397 90.8331 109.527 91.488 108.232C91.8014 107.554 91.8297 106.973 91.5625 106.48C91.0861 105.599 89.622 104.845 87.0856 104.175C84.973 103.618 82.4289 102.756 81.4952 101.028C81.0034 100.116 81.0175 99.0838 81.5389 97.957C82.5072 96.0434 84.8459 94.8223 87.5107 94.8223C90.1755 94.8223 92.5142 96.0434 93.4709 97.9331C93.6739 98.3368 93.4709 98.8086 93.0163 98.9894C92.5617 99.169 92.0274 98.9894 91.8232 98.5869C91.1683 97.2918 89.4358 96.4209 87.512 96.4209C85.5882 96.4209 83.8557 97.2907 83.1994 98.5869C82.8861 99.2646 82.8578 99.8444 83.125 100.339C83.6001 101.22 85.0655 101.973 87.6019 102.644C89.7145 103.201 92.2586 104.063 93.191 105.791C93.6841 106.703 93.67 107.735 93.1486 108.863C92.1815 110.776 89.8429 111.997 87.1768 111.997Z" fill="black"/>
<path d="M87.1768 114.215C86.6785 114.215 86.2739 113.857 86.2739 113.416V111.199C86.2739 110.758 86.6785 110.399 87.1768 110.399C87.6751 110.399 88.0796 110.758 88.0796 111.199V113.416C88.0796 113.857 87.6751 114.215 87.1768 114.215Z" fill="black"/>
<path d="M87.1768 96.4222C86.6785 96.4222 86.2739 96.0641 86.2739 95.6229V93.4058C86.2739 92.9646 86.6785 92.6064 87.1768 92.6064C87.6751 92.6064 88.0796 92.9646 88.0796 93.4058V95.6229C88.0796 96.0641 87.6751 96.4222 87.1768 96.4222Z" fill="black"/>
<path d="M71.7426 119.765H41.5163C41.018 119.765 40.6135 119.407 40.6135 118.966V87.856C40.6135 87.4148 41.018 87.0566 41.5163 87.0566H63.725C64.2233 87.0566 64.6278 87.4148 64.6278 87.856C64.6278 88.2971 64.2233 88.6553 63.725 88.6553H42.4191V118.165H71.7413C72.2396 118.165 72.6441 118.523 72.6441 118.964C72.6441 119.406 72.2409 119.765 71.7426 119.765Z" fill="black"/>
<path d="M71.7426 88.6553H68.826C68.3278 88.6553 67.9232 88.2971 67.9232 87.856C67.9232 87.4148 68.3278 87.0566 68.826 87.0566H71.7426C72.2409 87.0566 72.6454 87.4148 72.6454 87.856C72.6454 88.2971 72.2409 88.6553 71.7426 88.6553Z" fill="black"/>
<path d="M133.171 119.765H110.964C110.465 119.765 110.061 119.407 110.061 118.966C110.061 118.524 110.465 118.166 110.964 118.166H132.268V88.6553H102.946C102.448 88.6553 102.043 88.2971 102.043 87.856C102.043 87.4148 102.448 87.0566 102.946 87.0566H133.171C133.669 87.0566 134.074 87.4148 134.074 87.856V118.966C134.074 119.407 133.669 119.765 133.171 119.765Z" fill="black"/>
<path d="M105.864 119.765H102.946C102.448 119.765 102.043 119.407 102.043 118.966C102.043 118.524 102.448 118.166 102.946 118.166H105.864C106.362 118.166 106.767 118.524 106.767 118.966C106.767 119.407 106.362 119.765 105.864 119.765Z" fill="black"/>
<path d="M127.285 104.209H122.572C122.074 104.209 121.669 103.851 121.669 103.41C121.669 102.969 122.074 102.611 122.572 102.611H127.285C127.784 102.611 128.188 102.969 128.188 103.41C128.188 103.851 127.784 104.209 127.285 104.209Z" fill="black"/>
<path d="M52.1153 104.209H47.4033C46.905 104.209 46.5005 103.851 46.5005 103.41C46.5005 102.969 46.905 102.611 47.4033 102.611H52.1153C52.6136 102.611 53.0181 102.969 53.0181 103.41C53.0181 103.851 52.6136 104.209 52.1153 104.209Z" fill="black"/>
<path d="M59.8735 106.816C57.7531 106.816 56.0271 105.289 56.0271 103.41C56.0271 101.533 57.7531 100.005 59.8735 100.005C61.9938 100.005 63.7198 101.533 63.7198 103.41C63.7198 105.289 61.9938 106.816 59.8735 106.816ZM59.8735 101.604C58.7484 101.604 57.8328 102.414 57.8328 103.41C57.8328 104.406 58.7484 105.217 59.8735 105.217C60.9985 105.217 61.9141 104.406 61.9141 103.41C61.9141 102.414 60.9985 101.604 59.8735 101.604Z" fill="black"/>
<path d="M113.834 106.816C111.713 106.816 109.988 105.289 109.988 103.41C109.988 101.533 111.713 100.005 113.834 100.005C115.956 100.005 117.68 101.533 117.68 103.41C117.679 105.289 115.954 106.816 113.834 106.816ZM113.834 101.604C112.709 101.604 111.793 102.414 111.793 103.41C111.793 104.406 112.708 105.217 113.834 105.217C114.96 105.217 115.875 104.406 115.875 103.41C115.874 102.414 114.959 101.604 113.834 101.604Z" fill="black"/>
</svg>
