<svg width="40" height="40" viewBox="0 0 40 40" fill="none" xmlns="http://www.w3.org/2000/svg">
<path d="M34.6521 31.3558L29.1254 25.8453C30.9086 23.5736 31.8761 20.7684 31.8725 17.8804C31.8725 15.3085 31.1098 12.7943 29.681 10.6558C28.2521 8.51734 26.2211 6.85059 23.845 5.86635C21.4688 4.88211 18.8541 4.62459 16.3316 5.12635C13.8091 5.62811 11.492 6.86662 9.6734 8.68525C7.85476 10.5039 6.61626 12.821 6.1145 15.3435C5.61274 17.866 5.87026 20.4807 6.8545 22.8568C7.83873 25.233 9.50548 27.2639 11.644 28.6928C13.7825 30.1217 16.2966 30.8844 18.8686 30.8844C21.7565 30.888 24.5618 29.9204 26.8335 28.1373L32.3439 33.664C32.495 33.8163 32.6748 33.9372 32.8729 34.0198C33.071 34.1023 33.2834 34.1448 33.498 34.1448C33.7126 34.1448 33.9251 34.1023 34.1231 34.0198C34.3212 33.9372 34.501 33.8163 34.6521 33.664C34.8045 33.5129 34.9254 33.3331 35.0079 33.135C35.0904 32.9369 35.1329 32.7245 35.1329 32.5099C35.1329 32.2953 35.0904 32.0828 35.0079 31.8847C34.9254 31.6867 34.8045 31.5069 34.6521 31.3558V31.3558ZM9.11562 17.8804C9.11562 15.9515 9.68762 14.0658 10.7593 12.462C11.831 10.8581 13.3542 9.60805 15.1363 8.86987C16.9184 8.13169 18.8794 7.93855 20.7713 8.31487C22.6632 8.69119 24.401 9.62007 25.765 10.984C27.1289 12.348 28.0578 14.0858 28.4341 15.9777C28.8105 17.8696 28.6173 19.8306 27.8791 21.6127C27.141 23.3948 25.8909 24.918 24.287 25.9897C22.6832 27.0614 20.7975 27.6334 18.8686 27.6334C16.2819 27.6334 13.8012 26.6058 11.9722 24.7768C10.1432 22.9478 9.11562 20.4671 9.11562 17.8804Z" fill="#EA5455"/>
</svg>
