<svg width="166" height="165" viewBox="0 0 166 165" fill="none" xmlns="http://www.w3.org/2000/svg">
<ellipse cx="83" cy="82.8328" rx="83" ry="81.8814" fill="#E61910"/>
<path d="M130.3 79.5749L107.875 61.7805V49.6611C107.994 47.2321 107.132 44.8555 105.478 43.0525C103.824 41.2494 101.513 40.1669 99.0512 40.0425H43.4762C41.0317 40.1914 38.7451 41.2844 37.1117 43.0848C35.4784 44.8851 34.6299 47.2479 34.7499 49.6611V97.7541C34.7047 99.6639 35.2369 101.544 36.2788 103.154C37.3206 104.764 38.8249 106.032 40.5999 106.796C39.7021 108.962 39.3522 111.312 39.5804 113.642C39.8086 115.972 40.608 118.212 41.9097 120.17C43.2114 122.127 44.9762 123.742 47.052 124.876C49.1277 126.01 51.452 126.629 53.8243 126.679C56.1966 126.729 58.5456 126.209 60.6687 125.164C62.7917 124.119 64.6251 122.579 66.0106 120.679C67.3961 118.779 68.2921 116.574 68.6212 114.256C68.9504 111.938 68.7028 109.575 67.8999 107.373H98.9049C98.1031 109.552 97.8455 111.89 98.1538 114.188C98.4621 116.486 99.3273 118.677 100.676 120.576C102.025 122.474 103.818 124.024 105.902 125.094C107.987 126.164 110.302 126.723 112.652 126.723C115.002 126.723 117.318 126.164 119.403 125.094C121.487 124.024 123.28 122.474 124.629 120.576C125.978 118.677 126.843 116.486 127.151 114.188C127.459 111.89 127.202 109.552 126.4 107.373H127.375C128.668 107.373 129.908 106.866 130.822 105.964C131.736 105.062 132.25 103.839 132.25 102.563V83.3262C132.235 82.5959 132.052 81.8785 131.714 81.2285C131.376 80.5786 130.892 80.0131 130.3 79.5749ZM122.5 85.6346V97.7541H107.875V74.0923L122.5 85.6346ZM59.1249 112.182C59.1249 113.133 58.839 114.063 58.3033 114.854C57.7677 115.645 57.0063 116.261 56.1155 116.625C55.2247 116.989 54.2445 117.084 53.2988 116.899C52.3532 116.713 51.4846 116.255 50.8028 115.583C50.121 114.91 49.6567 114.053 49.4686 113.12C49.2805 112.187 49.377 111.22 49.746 110.342C50.115 109.463 50.7398 108.712 51.5415 108.183C52.3432 107.655 53.2857 107.373 54.2499 107.373C55.5428 107.373 56.7828 107.879 57.6971 108.781C58.6113 109.683 59.1249 110.906 59.1249 112.182ZM117.625 112.182C117.625 113.133 117.339 114.063 116.803 114.854C116.268 115.645 115.506 116.261 114.615 116.625C113.725 116.989 112.744 117.084 111.799 116.899C110.853 116.713 109.985 116.255 109.303 115.583C108.621 114.91 108.157 114.053 107.969 113.12C107.78 112.187 107.877 111.22 108.246 110.342C108.615 109.463 109.24 108.712 110.042 108.183C110.843 107.655 111.786 107.373 112.75 107.373C114.043 107.373 115.283 107.879 116.197 108.781C117.111 109.683 117.625 110.906 117.625 112.182Z" fill="white"/>
</svg>
